<?xml version="1.0" standalone="no"?><!DOCTYPE svg PUBLIC "-//W3C//DTD SVG 1.1//EN" "http://www.w3.org/Graphics/SVG/1.1/DTD/svg11.dtd"><svg t="1766737314838" class="icon" viewBox="0 0 1024 1024" version="1.1" xmlns="http://www.w3.org/2000/svg" p-id="9874" xmlns:xlink="http://www.w3.org/1999/xlink" width="200" height="200"><path d="M512 375.04a42.666667 42.666667 0 0 1 42.666667 42.666667v469.333333a42.666667 42.666667 0 0 1-85.333334 0v-469.333333a42.666667 42.666667 0 0 1 42.666667-42.666667z" p-id="9875"></path><path d="M511.829333 359.082667a42.666667 42.666667 0 0 1 27.434667 10.026666l264.277333 222.165334a42.666667 42.666667 0 0 1-54.912 65.322666l-236.842666-199.082666-236.8 199.082666a42.666667 42.666667 0 1 1-54.912-65.322666l264.277333-222.165334a42.666667 42.666667 0 0 1 27.477333-10.026666zM202.581333 94.378667h618.666667a42.666667 42.666667 0 0 1 0 85.333333h-618.666667a42.666667 42.666667 0 0 1 0-85.333333z" p-id="9876"></path></svg>